<svg width="21" height="21" viewBox="0 0 21 21" fill="none" xmlns="http://www.w3.org/2000/svg">
<g clip-path="url(#clip0_289_447)">
<path d="M15.8853 14.0194L19.4545 17.5877L18.2753 18.7669L14.707 15.1977C13.3792 16.2621 11.7278 16.841 10.0261 16.8385C5.88612 16.8385 2.52612 13.4785 2.52612 9.33854C2.52612 5.19854 5.88612 1.83854 10.0261 1.83854C14.1661 1.83854 17.5261 5.19854 17.5261 9.33854C17.5285 11.0402 16.9496 12.6917 15.8853 14.0194ZM14.2136 13.401C15.2712 12.3134 15.8618 10.8556 15.8595 9.33854C15.8595 6.11521 13.2486 3.50521 10.0261 3.50521C6.80279 3.50521 4.19279 6.11521 4.19279 9.33854C4.19279 12.561 6.80279 15.1719 10.0261 15.1719C11.5431 15.1743 13.001 14.5836 14.0886 13.526L14.2136 13.401Z" fill="#98A2B3"/>
</g>
<defs>
<clipPath id="clip0_289_447">
<rect width="20" height="20" fill="white" transform="translate(0.859375 0.171875)"/>
</clipPath>
</defs>
</svg>
